<svg width="108" height="108" viewBox="0 0 108 108" fill="none" xmlns="http://www.w3.org/2000/svg">
<path fill-rule="evenodd" clip-rule="evenodd" d="M54 54C54 46.5442 60.0442 40.5 67.5 40.5C74.9558 40.5 81 46.5442 81 54C81 61.4558 74.9558 67.5 67.5 67.5C60.0442 67.5 54 61.4558 54 54Z" fill="#1ABCFE"/>
<path fill-rule="evenodd" clip-rule="evenodd" d="M27 81C27 73.5442 33.0442 67.5 40.5 67.5H54V81C54 88.4558 47.9558 94.5 40.5 94.5C33.0442 94.5 27 88.4558 27 81Z" fill="#0ACF83"/>
<path fill-rule="evenodd" clip-rule="evenodd" d="M54 13.5V40.5H67.5C74.9558 40.5 81 34.4558 81 27C81 19.5442 74.9558 13.5 67.5 13.5H54Z" fill="#FF7262"/>
<path fill-rule="evenodd" clip-rule="evenodd" d="M27 27C27 34.4558 33.0442 40.5 40.5 40.5H54V13.5H40.5C33.0442 13.5 27 19.5442 27 27Z" fill="#F24E1E"/>
<path fill-rule="evenodd" clip-rule="evenodd" d="M27 54C27 61.4558 33.0442 67.5 40.5 67.5H54V40.5H40.5C33.0442 40.5 27 46.5442 27 54Z" fill="#A259FF"/>
</svg>
