<svg width="59" height="59" viewBox="0 0 59 59" fill="none" xmlns="http://www.w3.org/2000/svg">
<g clip-path="url(#clip0_253_960)">
<path d="M58.9999 30.505C58.8541 32.4832 57.7807 34.2542 55.6059 35.1853C52.0309 36.7191 48.4156 38.158 44.8178 39.6373C43.7637 40.0677 42.7237 40.5263 41.6556 40.9216C41.4739 40.9835 41.3092 41.087 41.1746 41.224C41.0401 41.361 40.9395 41.5276 40.8809 41.7104C39.0644 46.187 37.2287 50.6583 35.4052 55.1313C34.4618 57.4469 32.8192 58.8718 30.2685 58.9965C27.9636 59.1072 25.8099 57.5541 25.1353 55.2438C24.1796 51.9672 23.3311 48.6607 22.4475 45.3648C20.4817 38.0315 18.5036 30.7017 16.5694 23.3597C15.4697 19.166 19.1483 15.4765 23.3434 16.5781C30.3458 18.4175 37.3341 20.3097 44.3294 22.1808C47.8569 23.1243 51.3897 24.0589 54.912 25.027C57.3521 25.6981 58.9876 27.7765 58.9999 30.505Z" fill="#F5F5F5"/>
<path d="M54.7943 30.1553C54.7118 30.8422 54.2919 31.2094 53.7069 31.4554L46.9734 34.2155C44.3242 35.2977 41.6785 36.3923 39.0171 37.4499C38.6491 37.5874 38.3152 37.8029 38.0384 38.0816C37.7615 38.3603 37.5483 38.6956 37.4132 39.0645C35.4913 43.8046 33.5589 48.5406 31.616 53.2725C31.551 53.4341 31.493 53.5993 31.4227 53.7592C31.1697 54.3319 30.8079 54.8133 30.1192 54.7817C29.4306 54.75 29.1618 54.1755 29.0037 53.5852C27.0607 46.3152 25.1166 39.0458 23.1713 31.7769C22.3527 28.7129 21.5217 25.6524 20.7014 22.5884C20.3201 21.1635 21.1318 20.3378 22.5477 20.7173C32.8539 23.4779 43.1601 26.2409 53.4662 29.0063C53.6996 29.0631 53.9263 29.1443 54.1426 29.2487C54.3185 29.333 54.4705 29.4603 54.5844 29.6187C54.6982 29.7771 54.7705 29.9616 54.7943 30.1553Z" fill="#2563EB"/>
</g>
<defs>
<clipPath id="clip0_253_960">
<rect width="59" height="59" fill="white"/>
</clipPath>
</defs>
</svg>
