<svg width="60" height="60" viewBox="0 0 60 60" fill="none" xmlns="http://www.w3.org/2000/svg">
<path d="M3.75 22.75C3.75 16.0994 3.75 12.7741 5.0443 10.2339C6.18279 7.99944 7.99944 6.18279 10.2339 5.0443C12.7741 3.75 16.0994 3.75 22.75 3.75H37.25C43.9006 3.75 47.2259 3.75 49.7661 5.0443C52.0006 6.18279 53.8172 7.99944 54.9557 10.2339C56.25 12.7741 56.25 16.0994 56.25 22.75V37.25C56.25 43.9006 56.25 47.2259 54.9557 49.7661C53.8172 52.0006 52.0006 53.8172 49.7661 54.9557C47.2259 56.25 43.9006 56.25 37.25 56.25H22.75C16.0994 56.25 12.7741 56.25 10.2339 54.9557C7.99944 53.8172 6.18279 52.0006 5.0443 49.7661C3.75 47.2259 3.75 43.9006 3.75 37.25V22.75Z" fill="#001E36"/>
<path d="M15 42.218V19.1314C15 18.9744 15.0656 18.8846 15.2188 18.8846C17.4793 18.8846 19.7388 18.75 22 18.75C25.669 18.75 29.6418 20.0046 31.0344 23.8429C31.3625 24.7853 31.5375 25.75 31.5375 26.7596C31.5375 28.6891 31.1 30.2821 30.225 31.5385C27.7808 35.0481 23.5444 34.9936 19.7469 34.9936V42.1955C19.7766 42.4087 19.5949 42.5096 19.4187 42.5096H15.2625C15.0875 42.5096 15 42.4199 15 42.218ZM19.7688 23.2147V30.7532C21.2745 30.8635 22.8501 30.8755 24.2969 30.3942C25.8941 29.9335 26.7688 28.5509 26.7688 26.8942C26.8132 25.4825 26.0439 24.128 24.7344 23.6186C23.3051 23.0243 21.3116 22.9887 19.7688 23.2147Z" fill="#31A8FF"/>
<path d="M45.1812 29.2638C44.5194 28.915 43.8144 28.6598 43.0857 28.5053C42.1493 28.2849 38.4558 27.5132 38.4545 29.4444C38.4872 30.5226 40.1987 31.0508 40.9549 31.3589C43.6096 32.2703 46.6138 33.8995 46.5547 37.1745C46.6359 41.2515 42.6857 42.8813 39.2997 42.8817C37.5369 42.9 35.7005 42.627 34.0873 41.8703C33.9333 41.7888 33.8341 41.6144 33.8407 41.4368V37.5357C33.8234 37.3793 33.9912 37.2426 34.1225 37.3551C35.7032 38.311 37.5768 38.7751 39.4053 38.8C40.2125 38.8 41.8124 38.7217 41.8002 37.5357C41.8002 36.3975 39.8864 35.8742 39.1235 35.5851C38.0177 35.1903 36.9692 34.6435 36.0067 33.9596C34.6616 33.0002 33.8178 31.4619 33.8408 29.7695C33.8329 25.9307 37.469 24.2076 40.7437 24.2068C42.2745 24.1941 43.9184 24.3075 45.3435 24.9292C45.5484 24.9895 45.5909 25.2054 45.59 25.3988V29.0471C45.603 29.2735 45.3515 29.3507 45.1812 29.2638Z" fill="#31A8FF"/>
</svg>
